<svg width="512" height="512" viewBox="0 0 512 512" xmlns="http://www.w3.org/2000/svg">
  <!-- Background -->
  <rect x="0" y="0" width="512" height="512" rx="112" fill="#1E2A47"/>

  <!-- Clipboard clip -->
  <rect x="224" y="94" width="64" height="22" rx="7" fill="#E8A33D"/>

  <!-- Card -->
  <rect x="151" y="108" width="210" height="268" rx="26" fill="#FFFFFF"/>

  <!-- Checklist row 1 -->
  <circle cx="196" cy="176" r="13" fill="#1E2A47"/>
  <path d="M190 176l4.5 4.5L203 170" stroke="#FFFFFF" stroke-width="4" stroke-linecap="round" stroke-linejoin="round" fill="none"/>
  <rect x="222" y="170" width="108" height="12" rx="6" fill="#D7DEEA"/>

  <!-- Checklist row 2 -->
  <circle cx="196" cy="222" r="13" fill="#1E2A47"/>
  <path d="M190 222l4.5 4.5L203 216" stroke="#FFFFFF" stroke-width="4" stroke-linecap="round" stroke-linejoin="round" fill="none"/>
  <rect x="222" y="216" width="108" height="12" rx="6" fill="#D7DEEA"/>

  <!-- Checklist row 3 (unchecked, in-progress) -->
  <circle cx="196" cy="268" r="13" fill="none" stroke="#C7D0DE" stroke-width="4"/>
  <rect x="222" y="262" width="80" height="12" rx="6" fill="#E7EBF2"/>

  <!-- Amber check badge -->
  <circle cx="366" cy="366" r="80" fill="#1E2A47"/>
  <circle cx="366" cy="366" r="70" fill="#E8A33D"/>
  <path d="M333 367l22 22 46 -54" stroke="#FFFFFF" stroke-width="17" stroke-linecap="round" stroke-linejoin="round" fill="none"/>
</svg>
